<svg xmlns="http://www.w3.org/2000/svg" viewBox="0 0 200 200" width="200" height="200">
  <rect width="200" height="200" fill="#285260" rx="24"/>
  <circle cx="100" cy="65" r="45" fill="#E8E2D8" opacity="0.92"/>
  <path d="M55 90 L55 125 L145 125 L145 105 L135 105 L135 95 L125 95 L125 85 L115 85 L115 75 L105 75 L105 65 L95 65 L95 75 L85 75 L85 85 L75 85 L75 95 L65 95 L65 105 L55 105 Z" fill="#16323A"/>
  <circle cx="125" cy="100" r="4" fill="#E8E2D8" opacity="0.7"/>
  <path d="M40 135 Q55 128 70 135 Q85 142 100 135 Q115 128 130 135 Q145 142 160 135" fill="none" stroke="#E8E2D8" stroke-width="3" stroke-linecap="round" opacity="0.85"/>
  <path d="M45 148 Q60 141 75 148 Q90 155 105 148 Q120 141 135 148 Q150 155 155 148" fill="none" stroke="#E8E2D8" stroke-width="2.5" stroke-linecap="round" opacity="0.7"/>
  <path d="M50 160 Q65 153 80 160 Q95 167 110 160 Q125 153 140 160" fill="none" stroke="#E8E2D8" stroke-width="2" stroke-linecap="round" opacity="0.55"/>
</svg>